<svg version="1.1" viewBox="0.0 0.0 960.0 720.0" fill="none" stroke="none" stroke-linecap="square" stroke-miterlimit="10" xmlns:xlink="http://www.w3.org/1999/xlink" xmlns="http://www.w3.org/2000/svg"><clipPath id="p.0"><path d="m0 0l960.0 0l0 720.0l-960.0 0l0 -720.0z" clip-rule="nonzero"/></clipPath><g clip-path="url(#p.0)"><path fill="#000000" fill-opacity="0.0" d="m0 0l960.0 0l0 720.0l-960.0 0z" fill-rule="evenodd"/><path fill="#000000" fill-opacity="0.0" d="m754.02625 123.854996c-5.4055176 -3.6025085 -15.156738 -9.280151 -19.055115 -4.083992c-2.1950684 2.9257965 2.8563843 12.1130905 5.4435425 9.527565c2.4440918 -2.442505 -0.73187256 -10.365982 -4.0839844 -9.527565c-4.175415 1.0443649 3.2389526 16.469643 4.0839844 12.249336c0.64227295 -3.2075043 -2.3398438 -9.1985855 -5.4435425 -8.165344c-4.23938 1.4113159 4.3588867 16.583832 5.4435425 12.249344c1.0389404 -4.151764 -3.77948 -7.8608856 -6.805725 -10.887146" fill-rule="evenodd"/><path stroke="#000000" stroke-width="12.0" stroke-linejoin="round" stroke-linecap="butt" d="m754.02625 123.854996c-5.4055176 -3.6025085 -15.156738 -9.280151 -19.055115 -4.083992c-2.1950684 2.9257965 2.8563843 12.1130905 5.4435425 9.527565c2.4440918 -2.442505 -0.73187256 -10.365982 -4.0839844 -9.527565c-4.175415 1.0443649 3.2389526 16.469643 4.0839844 12.249336c0.64227295 -3.2075043 -2.3398438 -9.1985855 -5.4435425 -8.165344c-4.23938 1.4113159 4.3588867 16.583832 5.4435425 12.249344c1.0389404 -4.151764 -3.77948 -7.8608856 -6.805725 -10.887146" fill-rule="evenodd"/><path fill="#000000" fill-opacity="0.0" d="m626.3075 369.4081c-27.31488 0 -54.3938 -5.2005005 -81.66144 -6.8057556c-52.817566 -3.1094055 -106.33084 4.434265 -157.88449 16.333313c-31.199036 7.20105 -63.931915 15.196655 -89.82941 34.026276c-7.801422 5.672241 -20.250366 12.205658 -19.055115 21.776886c2.510437 20.102936 31.237976 27.333405 50.35959 34.026245c49.127625 17.195404 100.18448 28.564545 151.07874 39.472443c95.845215 20.542023 196.72247 18.965607 293.98688 6.803131c53.539062 -6.6947937 115.973694 -14.671814 152.4383 -54.440918c23.08368 -25.175568 -33.617554 -66.25601 -65.33069 -78.94226c-59.188904 -23.677399 -127.44 -25.347595 -190.54858 -16.333344" fill-rule="evenodd"/><path stroke="#000000" stroke-width="12.0" stroke-linejoin="round" stroke-linecap="butt" d="m626.3075 369.4081c-27.31488 0 -54.3938 -5.2005005 -81.66144 -6.8057556c-52.817566 -3.1094055 -106.33084 4.434265 -157.88449 16.333313c-31.199036 7.20105 -63.931915 15.196655 -89.82941 34.026276c-7.801422 5.672241 -20.250366 12.205658 -19.055115 21.776886c2.510437 20.102936 31.237976 27.333405 50.35959 34.026245c49.127625 17.195404 100.18448 28.564545 151.07874 39.472443c95.845215 20.542023 196.72247 18.965607 293.98688 6.803131c53.539062 -6.6947937 115.973694 -14.671814 152.4383 -54.440918c23.08368 -25.175568 -33.617554 -66.25601 -65.33069 -78.94226c-59.188904 -23.677399 -127.44 -25.347595 -190.54858 -16.333344" fill-rule="evenodd"/><path fill="#000000" fill-opacity="0.0" d="m868.3543 413.76013c-35.455933 11.833862 -74.2276 -10.887146 -111.60626 -10.887146c-22.12378 0 -36.46649 29.60617 -58.524963 31.304474c-29.954163 2.3062134 -57.549255 -17.76532 -87.107605 -23.1391c-16.731506 -3.0418396 -33.39142 9.295258 -50.35956 8.165344c-28.985962 -1.9301453 -55.436188 -19.362488 -84.38583 -21.776886c-26.735962 -2.2297974 -53.473083 5.446167 -80.30185 5.446167" fill-rule="evenodd"/><path stroke="#000000" stroke-width="4.0" stroke-linejoin="round" stroke-linecap="butt" d="m868.3543 413.76013c-35.455933 11.833862 -74.2276 -10.887146 -111.60626 -10.887146c-22.12378 0 -36.46649 29.60617 -58.524963 31.304474c-29.954163 2.3062134 -57.549255 -17.76532 -87.107605 -23.1391c-16.731506 -3.0418396 -33.39142 9.295258 -50.35956 8.165344c-28.985962 -1.9301453 -55.436188 -19.362488 -84.38583 -21.776886c-26.735962 -2.2297974 -53.473083 5.446167 -80.30185 5.446167" fill-rule="evenodd"/><path fill="#000000" fill-opacity="0.0" d="m881.9659 446.73752c-10.927429 12.750427 -23.12384 27.458588 -39.46985 31.304474c-44.171265 10.392639 -90.72754 -2.7217712 -136.10498 -2.7217712c-29.946533 0 -60.031128 -1.6147461 -89.829346 1.3621826c-21.005371 2.0985107 -41.52826 10.63797 -62.608948 9.527557c-46.586304 -2.453888 -92.17853 -17.695526 -138.8294 -17.695526" fill-rule="evenodd"/><path stroke="#000000" stroke-width="4.0" stroke-linejoin="round" stroke-linecap="butt" d="m881.9659 446.73752c-10.927429 12.750427 -23.12384 27.458588 -39.46985 31.304474c-44.171265 10.392639 -90.72754 -2.7217712 -136.10498 -2.7217712c-29.946533 0 -60.031128 -1.6147461 -89.829346 1.3621826c-21.005371 2.0985107 -41.52826 10.63797 -62.608948 9.527557c-46.586304 -2.453888 -92.17853 -17.695526 -138.8294 -17.695526" fill-rule="evenodd"/><path fill="#000000" fill-opacity="0.0" d="m616.563 256.56036c4.9697876 49.659515 1.3621826 99.80896 1.3621826 149.71655" fill-rule="evenodd"/><path stroke="#000000" stroke-width="12.0" stroke-linejoin="round" stroke-linecap="butt" d="m616.563 256.56036c4.9697876 49.659515 1.3621826 99.80896 1.3621826 149.71655" fill-rule="evenodd"/><path fill="#000000" fill-opacity="0.0" d="m665.55646 259.96326c18.006958 45.026123 0.32714844 102.55786 27.220459 142.91077" fill-rule="evenodd"/><path stroke="#000000" stroke-width="12.0" stroke-linejoin="round" stroke-linecap="butt" d="m665.55646 259.96326c18.006958 45.026123 0.32714844 102.55786 27.220459 142.91077" fill-rule="evenodd"/><path fill="#000000" fill-opacity="0.0" d="m270.7743 434.75592c12.478424 74.79855 -7.891815 173.30084 50.35956 221.85303c31.08142 25.906128 75.779724 30.089844 115.69031 36.747986c71.6351 11.950745 145.70581 2.2108154 217.76904 -6.805725c62.848083 -7.8636475 126.48596 -8.745239 189.18896 -17.692932c27.762756 -3.961731 58.976868 0.81829834 83.02362 -13.611572c34.220398 -20.534851 24.26001 -79.04724 17.692871 -118.41205c-5.3880615 -32.29724 -6.805725 -65.25116 -6.805725 -97.99475" fill-rule="evenodd"/><path stroke="#000000" stroke-width="12.0" stroke-linejoin="round" stroke-linecap="butt" d="m270.7743 434.75592c12.478424 74.79855 -7.891815 173.30084 50.35956 221.85303c31.08142 25.906128 75.779724 30.089844 115.69031 36.747986c71.6351 11.950745 145.70581 2.2108154 217.76904 -6.805725c62.848083 -7.8636475 126.48596 -8.745239 189.18896 -17.692932c27.762756 -3.961731 58.976868 0.81829834 83.02362 -13.611572c34.220398 -20.534851 24.26001 -79.04724 17.692871 -118.41205c-5.3880615 -32.29724 -6.805725 -65.25116 -6.805725 -97.99475" fill-rule="evenodd"/><path fill="#000000" fill-opacity="0.0" d="m551.228 227.29659c29.00238 8.285278 55.124268 25.348938 84.3858 32.66667c44.190796 11.051239 92.21539 -0.056732178 136.10498 -12.249344c21.856628 -6.0717926 45.55957 -7.9339905 65.33069 -19.055115c17.930298 -10.085632 38.173218 -21.923752 46.27826 -40.83203c11.35144 -26.481873 5.857605 -62.30297 -10.8897705 -85.748024c-43.595154 -61.029816 -132.18811 -95.2504 -206.8819 -88.46719c-50.785706 4.6120234 -91.80963 45.125454 -140.18896 61.24672c-27.119385 9.036888 -57.447784 5.408066 -85.74542 1.3622055c-90.38449 -12.922741 -180.9365 -24.96246 -270.8504 -40.83202c-41.572754 -7.3374786 -84.93986 -11.028484 -126.58006 -4.08399c-12.213997 2.036974 -29.658073 5.68062 -32.66404 17.692911c-1.9856267 7.9348526 7.455555 15.031387 13.611547 20.417328c27.212677 23.808624 67.700874 27.16719 103.438324 32.66404c83.464035 12.837761 168.8985 3.9167938 253.15747 9.527557c26.803894 1.7848587 53.709045 3.003662 80.30185 6.8057785c7.5286255 1.0764084 21.776886 -0.79943085 21.776886 6.805771c0 10.473846 -19.504517 8.658585 -29.94226 9.527557c-24.1156 2.0077057 -48.08539 5.4933014 -72.136475 8.1653595c-75.1763 8.35202 -149.8316 22.488983 -223.21259 40.832016c-39.58873 9.895996 -117.43103 18.938736 -107.52494 58.524933c13.330387 53.270187 111.62835 18.230423 164.68765 4.0839996c59.60144 -15.8906555 120.91327 -26.177032 182.38321 -31.304474c55.520386 -4.6311493 119.68912 -11.842133 166.04984 19.05513" fill-rule="evenodd"/><path stroke="#000000" stroke-width="12.0" stroke-linejoin="round" stroke-linecap="butt" d="m551.228 227.29659c29.00238 8.285278 55.124268 25.348938 84.3858 32.66667c44.190796 11.051239 92.21539 -0.056732178 136.10498 -12.249344c21.856628 -6.0717926 45.55957 -7.9339905 65.33069 -19.055115c17.930298 -10.085632 38.173218 -21.923752 46.27826 -40.83203c11.35144 -26.481873 5.857605 -62.30297 -10.8897705 -85.748024c-43.595154 -61.029816 -132.18811 -95.2504 -206.8819 -88.46719c-50.785706 4.6120234 -91.80963 45.125454 -140.18896 61.24672c-27.119385 9.036888 -57.447784 5.408066 -85.74542 1.3622055c-90.38449 -12.922741 -180.9365 -24.96246 -270.8504 -40.83202c-41.572754 -7.3374786 -84.93986 -11.028484 -126.58006 -4.08399c-12.213997 2.036974 -29.658073 5.68062 -32.66404 17.692911c-1.9856267 7.9348526 7.455555 15.031387 13.611547 20.417328c27.212677 23.808624 67.700874 27.16719 103.438324 32.66404c83.464035 12.837761 168.8985 3.9167938 253.15747 9.527557c26.803894 1.7848587 53.709045 3.003662 80.30185 6.8057785c7.5286255 1.0764084 21.776886 -0.79943085 21.776886 6.805771c0 10.473846 -19.504517 8.658585 -29.94226 9.527557c-24.1156 2.0077057 -48.08539 5.4933014 -72.136475 8.1653595c-75.1763 8.35202 -149.8316 22.488983 -223.21259 40.832016c-39.58873 9.895996 -117.43103 18.938736 -107.52494 58.524933c13.330387 53.270187 111.62835 18.230423 164.68765 4.0839996c59.60144 -15.8906555 120.91327 -26.177032 182.38321 -31.304474c55.520386 -4.6311493 119.68912 -11.842133 166.04984 19.05513" fill-rule="evenodd"/></g></svg>