<svg version="1.1" viewBox="0.0 0.0 125.33595800524934 100.0" fill="none" stroke="none" stroke-linecap="square" stroke-miterlimit="10" xmlns:xlink="http://www.w3.org/1999/xlink" xmlns="http://www.w3.org/2000/svg"><clipPath id="p.0"><path d="m0 0l125.33596 0l0 100.0l-125.33596 0l0 -100.0z" clip-rule="nonzero"/></clipPath><g clip-path="url(#p.0)"><path fill="#000000" fill-opacity="0.0" d="m0 0l125.33596 0l0 100.0l-125.33596 0z" fill-rule="evenodd"/><path fill="#e6b8af" d="m0.053805776 57.165356l0 -28.582678l62.614174 -28.582678l62.61417 28.582678l0 28.582678l-62.61417 -28.582678z" fill-rule="evenodd"/><path stroke="#000000" stroke-width="1.0" stroke-linejoin="round" stroke-linecap="butt" stroke-dasharray="1.0,3.0" d="m0.053805776 57.165356l0 -28.582678l62.614174 -28.582678l62.61417 28.582678l0 28.582678l-62.61417 -28.582678z" fill-rule="evenodd"/><path fill="#e6b8af" d="m0.053805776 100.0l0 -28.58268l62.614174 -28.582676l62.61417 28.582676l0 28.58268l-62.61417 -28.58268z" fill-rule="evenodd"/><path stroke="#000000" stroke-width="1.0" stroke-linejoin="round" stroke-linecap="butt" stroke-dasharray="1.0,3.0" d="m0.053805776 100.0l0 -28.58268l62.614174 -28.582676l62.61417 28.582676l0 28.58268l-62.61417 -28.58268z" fill-rule="evenodd"/></g></svg>